<svg width="405" height="73" viewBox="0 0 405 73" fill="none" xmlns="http://www.w3.org/2000/svg">
<path d="M38.9994 21.6608C38.6741 21.7439 38.3355 21.762 38.0031 21.7139C37.6708 21.6659 37.3512 21.5528 37.0626 21.381C36.7732 21.2087 36.5207 20.9808 36.3198 20.7104C36.1189 20.44 35.9735 20.1326 35.8921 19.8057C35.8106 19.4789 35.7946 19.1391 35.8451 18.8061C35.8956 18.4731 36.0115 18.1533 36.1862 17.8653C37.6336 15.3706 39.6283 13.237 42.02 11.625C43.0385 10.8127 44.2692 10.3105 45.5652 10.1786C46.8613 10.0467 48.168 10.2906 49.3292 10.8812C49.6437 11.0385 49.9223 11.2592 50.1474 11.5293C50.3726 11.7994 50.5395 12.1131 50.6377 12.4508C50.7359 12.7885 50.7632 13.1428 50.7179 13.4916C50.6726 13.8403 50.5558 14.1759 50.3746 14.4774C50.1935 14.7788 49.952 15.0395 49.6653 15.2432C49.3786 15.4469 49.0529 15.5891 48.7087 15.6609C48.3644 15.7327 48.0091 15.7326 47.6649 15.6606C47.3206 15.5886 46.995 15.4461 46.7085 15.2423C46.7085 15.2423 45.9721 15.1366 44.7463 15.9155C43.0566 17.1231 41.6511 18.685 40.6278 20.4923C40.4493 20.7869 40.213 21.0423 39.9332 21.2431C39.6533 21.4439 39.3357 21.586 38.9994 21.6608Z" fill="#87AF41"/>
<path d="M28.2125 22.1671C29.9001 23.8585 31.8029 25.3205 33.8721 26.5153C35.8983 27.7815 38.0824 28.7754 40.368 29.4716C42.4832 30.1467 44.5264 31.0291 46.4682 32.1058C46.8902 29.195 46.4648 26.2243 45.2429 23.549C44.021 20.8736 42.0544 18.6068 39.5781 17.0197C37.0144 15.5782 34.0897 14.9057 31.1539 15.0826C28.218 15.2595 25.3952 16.2783 23.0232 18.0173C24.8853 19.2264 26.6235 20.6164 28.2125 22.1671Z" fill="#9AD14B"/>
<path d="M38.7681 34.3408C36.1269 33.5371 33.5988 32.4 31.2452 30.9568C28.8661 29.556 26.6754 27.8576 24.7259 25.9026C23.0823 24.2524 21.232 22.8221 19.221 21.6474C18.7054 22.2935 18.2335 22.9734 17.8086 23.6824C14.4383 29.256 4.71076 55.5321 13.3402 60.8229C14.1836 61.2736 15.1086 61.551 16.0608 61.6387C17.013 61.7265 17.9732 61.623 18.8848 61.3341C28.2929 58.9888 41.2865 44.0214 44.0373 39.4437C44.464 38.7357 44.8428 38 45.1713 37.2414C43.1726 35.9993 41.0199 35.0242 38.7681 34.3408Z" fill="#F95428"/>
<path d="M78.6151 58L66.1293 14.3636H76.2074L83.4304 44.6832H83.7926L91.7614 14.3636H100.391L108.338 44.7472H108.722L115.945 14.3636H126.023L113.537 58H104.545L96.2358 29.4702H95.8949L87.6065 58H78.6151ZM133.961 58V14.3636H163.364V21.9702H143.186V32.3679H161.851V39.9744H143.186V50.3935H163.449V58H133.961ZM182.925 14.3636V58H173.699V14.3636H182.925ZM230.014 14.3636V58H222.045L203.061 30.5355H202.741V58H193.515V14.3636H201.612L220.447 41.8068H220.831V14.3636H230.014ZM248.072 14.3636V18.9659C248.072 20.2727 247.817 21.608 247.305 22.9716C246.808 24.321 246.141 25.5994 245.303 26.8068C244.464 28 243.548 29.0156 242.554 29.8537L238.548 27.4886C239.259 26.3665 239.884 25.1236 240.423 23.7599C240.977 22.3963 241.254 20.8125 241.254 19.0085V14.3636H248.072ZM280.961 26.9134C280.79 25.1946 280.059 23.8594 278.766 22.9077C277.473 21.956 275.719 21.4801 273.503 21.4801C271.998 21.4801 270.726 21.6932 269.689 22.1193C268.652 22.5312 267.857 23.1065 267.303 23.8452C266.763 24.5838 266.493 25.4219 266.493 26.3594C266.465 27.1406 266.628 27.8224 266.983 28.4048C267.353 28.9872 267.857 29.4915 268.496 29.9176C269.135 30.3295 269.874 30.6918 270.712 31.0043C271.55 31.3026 272.445 31.5582 273.397 31.7713L277.317 32.7088C279.221 33.1349 280.968 33.7031 282.559 34.4134C284.15 35.1236 285.527 35.9972 286.692 37.0341C287.857 38.071 288.759 39.2926 289.398 40.6989C290.051 42.1051 290.385 43.7173 290.4 45.5355C290.385 48.206 289.703 50.5213 288.354 52.4815C287.019 54.4276 285.087 55.9403 282.559 57.0199C280.044 58.0852 277.012 58.6179 273.461 58.6179C269.938 58.6179 266.87 58.0781 264.256 56.9986C261.657 55.919 259.625 54.321 258.162 52.2045C256.713 50.0739 255.953 47.4389 255.882 44.2997H264.81C264.909 45.7628 265.328 46.9844 266.067 47.9645C266.82 48.9304 267.821 49.6619 269.071 50.1591C270.336 50.642 271.763 50.8835 273.354 50.8835C274.917 50.8835 276.273 50.6562 277.424 50.2017C278.588 49.7472 279.49 49.1151 280.13 48.3054C280.769 47.4957 281.088 46.5653 281.088 45.5142C281.088 44.5341 280.797 43.7102 280.215 43.0426C279.647 42.375 278.809 41.8068 277.701 41.3381C276.607 40.8693 275.265 40.4432 273.674 40.0597L268.922 38.8665C265.243 37.9716 262.338 36.5724 260.208 34.669C258.077 32.7656 257.019 30.2017 257.033 26.9773C257.019 24.3352 257.722 22.027 259.142 20.0526C260.577 18.0781 262.544 16.5369 265.044 15.429C267.544 14.321 270.385 13.767 273.567 13.767C276.806 13.767 279.632 14.321 282.047 15.429C284.476 16.5369 286.365 18.0781 287.715 20.0526C289.064 22.027 289.76 24.3139 289.803 26.9134H280.961ZM316.492 58V14.3636H333.708C337.017 14.3636 339.837 14.9957 342.167 16.2599C344.496 17.5099 346.272 19.25 347.493 21.4801C348.729 23.696 349.347 26.2528 349.347 29.1506C349.347 32.0483 348.722 34.6051 347.472 36.821C346.222 39.0369 344.411 40.7628 342.039 41.9986C339.681 43.2344 336.826 43.8523 333.473 43.8523H322.5V36.4588H331.982C333.757 36.4588 335.221 36.1534 336.371 35.5426C337.536 34.9176 338.402 34.0582 338.971 32.9645C339.553 31.8565 339.844 30.5852 339.844 29.1506C339.844 27.7017 339.553 26.4375 338.971 25.358C338.402 24.2642 337.536 23.419 336.371 22.8224C335.206 22.2116 333.729 21.9062 331.939 21.9062H325.718V58H316.492ZM398.439 36.1818C398.439 40.9403 397.537 44.9886 395.733 48.3267C393.943 51.6648 391.5 54.2145 388.403 55.9759C385.321 57.723 381.855 58.5966 378.006 58.5966C374.128 58.5966 370.648 57.7159 367.565 55.9545C364.483 54.1932 362.047 51.6435 360.257 48.3054C358.467 44.9673 357.572 40.9261 357.572 36.1818C357.572 31.4233 358.467 27.375 360.257 24.0369C362.047 20.6989 364.483 18.1562 367.565 16.4091C370.648 14.6477 374.128 13.767 378.006 13.767C381.855 13.767 385.321 14.6477 388.403 16.4091C391.5 18.1562 393.943 20.6989 395.733 24.0369C397.537 27.375 398.439 31.4233 398.439 36.1818ZM389.085 36.1818C389.085 33.0994 388.624 30.5 387.7 28.3835C386.791 26.267 385.506 24.6619 383.844 23.5682C382.182 22.4744 380.236 21.9276 378.006 21.9276C375.776 21.9276 373.83 22.4744 372.168 23.5682C370.506 24.6619 369.213 26.267 368.29 28.3835C367.381 30.5 366.926 33.0994 366.926 36.1818C366.926 39.2642 367.381 41.8636 368.29 43.9801C369.213 46.0966 370.506 47.7017 372.168 48.7955C373.83 49.8892 375.776 50.4361 378.006 50.4361C380.236 50.4361 382.182 49.8892 383.844 48.7955C385.506 47.7017 386.791 46.0966 387.7 43.9801C388.624 41.8636 389.085 39.2642 389.085 36.1818Z" fill="#ff0000"/>
</svg>
